<?xml version="1.0" encoding="UTF-8"?>
<!-- Generator: Adobe Illustrator 27.9.0, SVG Export Plug-In . SVG Version: 6.00 Build 0)  -->
<svg xmlns="http://www.w3.org/2000/svg" xmlns:xlink="http://www.w3.org/1999/xlink" version="1.1" id="Layer_1" x="0px" y="0px" viewBox="0 0 297.7 29.6" style="enable-background:new 0 0 297.7 29.6;" xml:space="preserve">
<style type="text/css">
	.st0{fill:#FFFFFF;}
	.st1{fill:#FF0069;}
</style>
<g>
	<path class="st0" d="M65.3,3.1h6.1l3,10.8c0.8,2.7,1.4,5.8,1.4,5.8h0.1c0,0,0.6-3.1,1.3-5.8l3-10.8h6.2v21.5h-4.1V12.3   c0-1.7,0.2-4.4,0.2-4.4h-0.1c0,0-0.5,2.5-0.9,4.1l-3.7,12.7h-4.2l-3.6-12.7c-0.5-1.6-0.9-4.1-0.9-4.1h-0.1c0,0,0.2,2.7,0.2,4.4   v12.3h-4V3.1z"></path>
	<path class="st0" d="M98.6,22.9L98.6,22.9c-0.8,1.2-2,2.1-4.6,2.1c-3.2,0-5.4-1.7-5.4-4.7c0-3.4,2.8-4.5,6.2-5   c2.6-0.4,3.7-0.6,3.7-1.7c0-1.1-0.9-1.8-2.6-1.8c-1.9,0-2.9,0.7-3,2.2h-3.6c0.1-2.7,2.1-5.1,6.6-5.1c4.6,0,6.5,2.1,6.5,5.7v7.8   c0,1.2,0.2,1.9,0.5,2.1v0.2h-3.9C98.9,24.3,98.7,23.6,98.6,22.9z M98.6,19.2v-2.3c-0.7,0.4-1.8,0.7-2.9,0.9c-2.1,0.5-3.2,1-3.2,2.4   c0,1.4,1,2,2.4,2C97.4,22.1,98.6,20.7,98.6,19.2z"></path>
	<path class="st0" d="M110.9,17.6l-1.8,1.8v5.2h-4.1V3.1h4.1V15l5.5-5.8h4.9l-5.7,5.9l6.4,9.5h-5L110.9,17.6z"></path>
	<path class="st0" d="M119.6,16.9c0-4.6,3.1-8.1,7.6-8.1c5,0,7.6,3.8,7.6,9.3h-11.2c0.3,2.4,1.6,3.8,3.9,3.8c1.6,0,2.5-0.7,3-1.9h4   c-0.6,2.7-3,5-7,5C122.5,25.1,119.6,21.5,119.6,16.9z M123.7,15.2h6.8c-0.1-2-1.4-3.3-3.3-3.3C125.1,11.9,124.1,13.2,123.7,15.2z"></path>
	<path class="st0" d="M146.4,24.6v-1.8h-0.1c-1.1,1.4-2.3,2.2-4.4,2.2c-3.4,0-5.3-2.2-5.3-5.6V9.2h4.1v9.6c0,1.8,0.8,2.8,2.6,2.8   c1.9,0,3.1-1.4,3.1-3.5V9.2h4.1v15.4H146.4z"></path>
	<path class="st0" d="M153,9.2h3.9v1.9h0.1c1-1.4,2.4-2.3,4.5-2.3c4.1,0,6.7,3.3,6.7,8.1c0,5-2.7,8.1-6.7,8.1   c-2.2,0-3.6-0.9-4.4-2.2h-0.1v6.8H153V9.2z M164.1,17c0-2.9-1-5-3.5-5c-2.6,0-3.6,2.2-3.6,5c0,2.8,1.3,4.6,3.7,4.6   C162.8,21.7,164.1,19.9,164.1,17z"></path>
	<path class="st0" d="M181.4,3.1h4.5l7.6,21.5H189l-1.4-4.6h-7.7l-1.4,4.6H174L181.4,3.1z M180.8,16.7h5.7l-1.9-6.2   c-0.4-1.1-0.9-3.3-0.9-3.3h-0.1c0,0-0.5,2.2-0.9,3.3L180.8,16.7z"></path>
	<path class="st0" d="M193.6,16.9c0-4.6,3-8.1,7.7-8.1c4,0,6.5,2.3,7,5.6h-4c-0.3-1.4-1.3-2.4-2.8-2.4c-2.5,0-3.7,1.9-3.7,4.9   c0,2.9,1.2,4.9,3.7,4.9c1.7,0,2.8-0.9,3.1-2.6h3.9c-0.3,3.3-2.8,5.9-6.9,5.9C196.6,25.1,193.6,21.5,193.6,16.9z"></path>
	<path class="st0" d="M219.7,22.9L219.7,22.9c-0.8,1.2-2,2.1-4.6,2.1c-3.2,0-5.4-1.7-5.4-4.7c0-3.4,2.8-4.5,6.2-5   c2.6-0.4,3.7-0.6,3.7-1.7c0-1.1-0.9-1.8-2.6-1.8c-1.9,0-2.9,0.7-3,2.2h-3.6c0.1-2.7,2.1-5.1,6.6-5.1c4.6,0,6.5,2.1,6.5,5.7v7.8   c0,1.2,0.2,1.9,0.5,2.1v0.2h-3.9C220,24.3,219.8,23.6,219.7,22.9z M219.7,19.2v-2.3c-0.7,0.4-1.8,0.7-2.9,0.9   c-2.1,0.5-3.2,1-3.2,2.4c0,1.4,1,2,2.4,2C218.5,22.1,219.7,20.7,219.7,19.2z"></path>
	<path class="st0" d="M225.4,16.9c0-4.8,2.7-8.1,6.6-8.1c2.2,0,3.5,1,4.4,2.3h0.1V3.1h4.1v21.5h-3.9v-2h-0.1   c-0.9,1.5-2.4,2.5-4.6,2.5C228.1,25.1,225.4,21.9,225.4,16.9z M236.5,17c0-2.9-1-4.9-3.6-4.9c-2.3,0-3.4,2-3.4,4.8   c0,3,1.2,4.7,3.3,4.7C235.3,21.6,236.5,19.8,236.5,17z"></path>
	<path class="st0" d="M242.4,16.9c0-4.6,3.1-8.1,7.6-8.1c5,0,7.6,3.8,7.6,9.3h-11.2c0.3,2.4,1.6,3.8,3.9,3.8c1.6,0,2.5-0.7,3-1.9h4   c-0.6,2.7-3,5-7,5C245.3,25.1,242.4,21.5,242.4,16.9z M246.5,15.2h6.8c-0.1-2-1.4-3.3-3.3-3.3C247.9,11.9,246.8,13.2,246.5,15.2z"></path>
	<path class="st0" d="M259.5,9.2h3.9v2.1h0.1c0.8-1.4,2.3-2.5,4.5-2.5c2,0,3.5,1.1,4.3,2.7h0.1c1.1-1.7,2.7-2.7,4.6-2.7   c3.2,0,5.1,2.1,5.1,5.5v10.4h-4.1v-9.7c0-1.7-0.9-2.6-2.4-2.6c-1.7,0-2.8,1.3-2.8,3.4v8.9h-4.1v-9.7c0-1.7-0.9-2.6-2.4-2.6   c-1.7,0-2.8,1.3-2.8,3.4v8.9h-4.1V9.2z"></path>
	<path class="st0" d="M284.5,26.4h1.4c1.6,0,2.3-0.8,2.3-2.1c0-0.8-0.3-1.8-1.2-4.2l-4.1-11h4.3l2.3,6.9c0.5,1.4,1,3.4,1,3.4h0.1   c0,0,0.4-2,0.9-3.4l2.2-6.9h4.1L292.4,25c-1.2,3.4-2.3,4.7-5.4,4.7h-2.4V26.4z"></path>
</g>
<g>
	<g>
		<path class="st0" d="M12.2,6.4c4.1,0,7.4,3.3,7.4,7.4c0,4.1-3.3,7.4-7.4,7.4c-4.1,0-7.4-3.3-7.4-7.4C4.8,9.8,8.1,6.4,12.2,6.4z     M12.2,1.7C5.5,1.7,0,7.1,0,13.8c0,6.7,5.5,12.1,12.2,12.1c6.7,0,12.2-5.4,12.2-12.1C24.4,7.1,18.9,1.7,12.2,1.7z"></path>
		<path class="st0" d="M42.2,16c-0.9,3-3.8,5.2-7.1,5.2c-4.1,0-7.4-3.3-7.4-7.4c0-4.1,3.3-7.4,7.4-7.4c3.2,0,5.9,2,7,4.8H47    c-1.2-5.5-6.1-9.6-11.9-9.6c-6.7,0-12.2,5.4-12.2,12.1c0,6.7,5.5,12.1,12.2,12.1c6,0,10.9-4.3,12-9.9L42.2,16L42.2,16z"></path>
		<path class="st0" d="M18.8,17.3l6.4,6.3l-3.6,3.2l-9.8-9.5L18.8,17.3L18.8,17.3z"></path>
	</g>
</g>
<rect x="53.3" class="st1" width="4.9" height="27.6"></rect>
</svg>
